<svg width="26" height="26" viewBox="0 0 26 26" fill="none" xmlns="http://www.w3.org/2000/svg">
<path d="M23.4812 9.79063C22.9103 8.43911 22.0825 7.21121 21.0437 6.175C20.0075 5.13629 18.7796 4.3085 17.4281 3.7375C16.024 3.14336 14.5361 2.84375 13 2.84375C11.4639 2.84375 9.97598 3.14336 8.57188 3.7375C7.22036 4.3085 5.99246 5.13629 4.95625 6.175C3.91754 7.21121 3.08975 8.43911 2.51875 9.79063C1.92461 11.1947 1.625 12.6826 1.625 14.2188C1.625 17.5881 3.10527 20.7619 5.68496 22.9303L5.72813 22.9658C5.87539 23.0877 6.06074 23.1562 6.25117 23.1562H19.7514C19.9418 23.1562 20.1271 23.0877 20.2744 22.9658L20.3176 22.9303C22.8947 20.7619 24.375 17.5881 24.375 14.2188C24.375 12.6826 24.0729 11.1947 23.4812 9.79063ZM19.3324 21.2266H6.66758C5.68648 20.3419 4.90234 19.2609 4.36606 18.0536C3.82978 16.8463 3.55335 15.5398 3.55469 14.2188C3.55469 11.6949 4.5373 9.32344 6.32227 7.54102C8.10723 5.75605 10.4787 4.77344 13 4.77344C15.5238 4.77344 17.8953 5.75605 19.6777 7.54102C21.4627 9.32598 22.4453 11.6975 22.4453 14.2188C22.4453 16.9 21.3154 19.4365 19.3324 21.2266ZM15.8311 10.7021C15.7929 10.6643 15.7413 10.6431 15.6876 10.6431C15.6339 10.6431 15.5823 10.6643 15.5441 10.7021L13.3986 12.8477C12.9238 12.7207 12.3982 12.8426 12.025 13.2158C11.8928 13.3478 11.7879 13.5045 11.7164 13.677C11.6448 13.8496 11.608 14.0345 11.608 14.2213C11.608 14.4081 11.6448 14.593 11.7164 14.7656C11.7879 14.9381 11.8928 15.0948 12.025 15.2268C12.1569 15.359 12.3137 15.4638 12.4862 15.5354C12.6587 15.607 12.8437 15.6438 13.0305 15.6438C13.2173 15.6438 13.4022 15.607 13.5747 15.5354C13.7473 15.4638 13.904 15.359 14.0359 15.2268C14.2128 15.0505 14.3399 14.8306 14.4046 14.5894C14.4692 14.3482 14.4691 14.0942 14.4041 13.8531L16.5496 11.7076C16.6283 11.6289 16.6283 11.4994 16.5496 11.4207L15.8311 10.7021ZM12.4414 8.125H13.5586C13.6703 8.125 13.7617 8.03359 13.7617 7.92188V5.89062C13.7617 5.77891 13.6703 5.6875 13.5586 5.6875H12.4414C12.3297 5.6875 12.2383 5.77891 12.2383 5.89062V7.92188C12.2383 8.03359 12.3297 8.125 12.4414 8.125ZM19.043 13.6602V14.7773C19.043 14.8891 19.1344 14.9805 19.2461 14.9805H21.2773C21.3891 14.9805 21.4805 14.8891 21.4805 14.7773V13.6602C21.4805 13.5484 21.3891 13.457 21.2773 13.457H19.2461C19.1344 13.457 19.043 13.5484 19.043 13.6602ZM19.3654 8.65312L18.5758 7.86348C18.5376 7.82567 18.486 7.80447 18.4323 7.80447C18.3786 7.80447 18.327 7.82567 18.2889 7.86348L16.8518 9.30059C16.814 9.33876 16.7927 9.39032 16.7927 9.44404C16.7927 9.49777 16.814 9.54932 16.8518 9.5875L17.6414 10.3771C17.7201 10.4559 17.8496 10.4559 17.9283 10.3771L19.3654 8.94004C19.4441 8.86133 19.4441 8.73184 19.3654 8.65312ZM7.72129 7.86348C7.68311 7.82567 7.63156 7.80447 7.57783 7.80447C7.52411 7.80447 7.47255 7.82567 7.43437 7.86348L6.64473 8.65312C6.60692 8.6913 6.58572 8.74286 6.58572 8.79658C6.58572 8.85031 6.60692 8.90186 6.64473 8.94004L8.08184 10.3771C8.16055 10.4559 8.29004 10.4559 8.36875 10.3771L9.1584 9.5875C9.23711 9.50879 9.23711 9.3793 9.1584 9.30059L7.72129 7.86348ZM6.65234 13.457H4.62109C4.50938 13.457 4.41797 13.5484 4.41797 13.6602V14.7773C4.41797 14.8891 4.50938 14.9805 4.62109 14.9805H6.65234C6.76406 14.9805 6.85547 14.8891 6.85547 14.7773V13.6602C6.85547 13.5484 6.76406 13.457 6.65234 13.457Z" fill="white"/>
</svg>
