<svg width="16" height="10" viewBox="0 0 16 10" fill="none" xmlns="http://www.w3.org/2000/svg">
<path d="M15.2534 0.346171C15.0268 0.138557 14.7249 0.0275193 14.4142 0.0374778C14.1035 0.0474362 13.8094 0.177575 13.5966 0.399275L7.97823 6.25302L1.99655 0.771077C1.76887 0.569586 1.4692 0.463661 1.16206 0.476117C0.85492 0.488573 0.564898 0.618412 0.354455 0.837671C0.144014 1.05693 0.0299918 1.34806 0.0369445 1.64837C0.0438972 1.94868 0.17127 2.23412 0.39163 2.44324L7.22766 8.70815C7.45427 8.91577 7.75611 9.0268 8.06681 9.01685C8.37751 9.00689 8.67162 8.87675 8.88447 8.65505L15.3053 1.96523C15.5181 1.74346 15.6321 1.44832 15.6224 1.1447C15.6127 0.841086 15.4799 0.553854 15.2534 0.346171Z" fill="#D9D9D9"/>
</svg>
