<svg width="26" height="26" viewBox="0 0 26 26" fill="none" xmlns="http://www.w3.org/2000/svg">
<path d="M6.5 5.6875C6.5 5.47201 6.5856 5.26535 6.73798 5.11298C6.89035 4.9606 7.09701 4.875 7.3125 4.875H15.4375C15.653 4.875 15.8597 4.9606 16.012 5.11298C16.1644 5.26535 16.25 5.47201 16.25 5.6875C16.25 5.90299 16.1644 6.10965 16.012 6.26202C15.8597 6.4144 15.653 6.5 15.4375 6.5H7.3125C7.09701 6.5 6.89035 6.4144 6.73798 6.26202C6.5856 6.10965 6.5 5.90299 6.5 5.6875ZM6.5 8.9375C6.5 8.72201 6.5856 8.51535 6.73798 8.36298C6.89035 8.2106 7.09701 8.125 7.3125 8.125H18.6875C18.903 8.125 19.1097 8.2106 19.262 8.36298C19.4144 8.51535 19.5 8.72201 19.5 8.9375V21.9375C19.5 22.153 19.4144 22.3597 19.262 22.512C19.1097 22.6644 18.903 22.75 18.6875 22.75H7.3125C7.09701 22.75 6.89035 22.6644 6.73798 22.512C6.5856 22.3597 6.5 22.153 6.5 21.9375V8.9375Z" fill="white"/>
<path d="M3.25 3.25C3.25 2.38805 3.59241 1.5614 4.2019 0.951903C4.8114 0.34241 5.63805 0 6.5 0L19.5 0C20.362 0 21.1886 0.34241 21.7981 0.951903C22.4076 1.5614 22.75 2.38805 22.75 3.25V22.75C22.75 23.612 22.4076 24.4386 21.7981 25.0481C21.1886 25.6576 20.362 26 19.5 26H6.5C5.63805 26 4.8114 25.6576 4.2019 25.0481C3.59241 24.4386 3.25 23.612 3.25 22.75V3.25ZM19.5 1.625H6.5C6.06902 1.625 5.6557 1.7962 5.35095 2.10095C5.0462 2.4057 4.875 2.81902 4.875 3.25V22.75C4.875 23.181 5.0462 23.5943 5.35095 23.899C5.6557 24.2038 6.06902 24.375 6.5 24.375H19.5C19.931 24.375 20.3443 24.2038 20.649 23.899C20.9538 23.5943 21.125 23.181 21.125 22.75V3.25C21.125 2.81902 20.9538 2.4057 20.649 2.10095C20.3443 1.7962 19.931 1.625 19.5 1.625Z" fill="white"/>
</svg>
