<svg width="32" height="32" viewBox="0 0 32 32" fill="none" xmlns="http://www.w3.org/2000/svg">
<path d="M24.292 15.5469C25.2427 15.6112 26.1844 15.3276 26.9415 14.749C27.6986 14.1703 28.2194 13.3362 28.407 12.4019C28.174 12.0407 27.8541 11.7436 27.4765 11.538C27.099 11.3324 26.6759 11.2247 26.246 11.2249C23.974 11.1729 22.755 13.8759 24.293 15.5479L24.292 15.5469ZM15.115 4.69693L20.474 1.59293L18.766 0.629934L11.375 4.91093L11.964 5.23893L13.083 5.86793L15.115 4.69193V4.69693ZM21.161 1.30693C21.25 1.33393 21.322 1.40693 21.349 1.49493L23.833 9.08793C23.8559 9.15083 23.8559 9.21976 23.833 9.28265C23.8102 9.34555 23.7659 9.39839 23.708 9.43193C22.7507 9.99522 22.0053 10.8577 21.5865 11.8865C21.1678 12.9153 21.0991 14.0532 21.391 15.1249C21.7074 16.2815 22.4238 17.2884 23.4128 17.9664C24.4017 18.6444 25.5991 18.9497 26.792 18.8279C26.8585 18.8227 26.9248 18.8398 26.9804 18.8766C27.0361 18.9134 27.0778 18.9677 27.099 19.0309L29.662 26.8339C29.6821 26.897 29.6807 26.965 29.6581 27.0272C29.6354 27.0894 29.5929 27.1424 29.537 27.1779L21.678 31.9489C21.6381 31.9718 21.593 31.9842 21.547 31.9849C21.5122 31.9923 21.4762 31.9924 21.4413 31.9853C21.4064 31.9783 21.3733 31.9642 21.344 31.9439L18.579 30.1469C18.5315 30.1148 18.4938 30.0702 18.47 30.0179L13.074 17.1219L4.85501 21.9969C4.83901 22.0079 4.81801 22.0179 4.80301 22.0289C4.76086 22.0459 4.71533 22.0529 4.67004 22.0492C4.62474 22.0456 4.58091 22.0314 4.54201 22.0079L2.68301 20.9149C2.61755 20.8794 2.56876 20.8194 2.54723 20.7481C2.5257 20.6767 2.53317 20.5998 2.56801 20.5339L10.521 4.78493C10.5491 4.72665 10.5969 4.68023 10.656 4.65393L18.615 0.0449341C18.659 0.0186384 18.7091 0.00433828 18.7603 0.00346092C18.8116 0.00258357 18.8622 0.0151597 18.907 0.0399341L21.161 1.30693ZM12.839 6.40693L10.907 5.31793L3.21401 20.5469L4.61001 21.3699L11.241 12.3549C11.2705 12.3117 11.3115 12.2775 11.3594 12.2563C11.4073 12.2351 11.4601 12.2277 11.512 12.2349C11.5635 12.2406 11.6125 12.26 11.6538 12.2912C11.6952 12.3223 11.7274 12.364 11.747 12.4119L18.975 29.7079L20.908 30.9589L12.845 6.40693H12.839ZM26.245 16.9639C23.989 16.9639 22.458 14.6719 23.322 12.5879C24.182 10.5049 26.885 9.96893 28.478 11.5629C29.073 12.1559 29.406 12.9589 29.406 13.7979C29.4071 14.2136 29.3261 14.6254 29.1677 15.0098C29.0092 15.3941 28.7765 15.7434 28.4829 16.0376C28.1892 16.3318 27.8404 16.5651 27.4564 16.7243C27.0724 16.8834 26.6607 16.9642 26.245 16.9639Z" fill="white"/>
</svg>
