<svg width="23" height="23" viewBox="0 0 23 23" fill="none" xmlns="http://www.w3.org/2000/svg">
<path d="M18.3999 10.672C18.3999 9.70599 17.6179 9.19999 16.5599 9.19999H13.4779C13.7079 8.37199 13.7999 7.58999 13.7999 6.89999C13.7999 4.23199 13.0639 3.67999 12.4199 3.67999C12.0059 3.67999 11.6839 3.72599 11.2699 3.95599C11.1319 4.04799 11.0859 4.13999 11.0399 4.27799L10.5799 6.76199C10.0739 8.04999 8.83195 9.19999 7.81995 9.98199V16.56C8.18795 16.56 8.55595 16.744 9.01595 16.974C9.52195 17.204 10.0279 17.48 10.5799 17.48H14.9499C15.8699 17.48 16.5599 16.744 16.5599 16.1C16.5599 15.962 16.5599 15.87 16.5139 15.778C17.0659 15.548 17.4799 15.088 17.4799 14.49C17.4799 14.214 17.4339 13.984 17.3419 13.754C17.7099 13.524 18.0319 13.11 18.0319 12.65C18.0319 12.374 17.8939 12.098 17.7559 11.868C18.1239 11.592 18.3999 11.132 18.3999 10.672ZM17.4339 10.672C17.4339 11.27 16.8359 11.316 16.7439 11.592C16.6519 11.914 17.1119 12.006 17.1119 12.558C17.1119 13.11 16.4219 13.11 16.3299 13.432C16.2379 13.8 16.5599 13.892 16.5599 14.444V14.536C16.4679 14.996 15.7779 15.042 15.6399 15.226C15.5019 15.456 15.6399 15.548 15.6399 16.054C15.6399 16.33 15.3179 16.514 14.9499 16.514H10.5799C10.2119 16.514 9.84395 16.33 9.38395 16.1C9.01595 15.916 8.64795 15.732 8.27995 15.64V10.81C9.42995 9.93599 10.9019 8.64799 11.4539 7.03799V6.94599L11.8679 4.64599C12.0519 4.59999 12.1899 4.59999 12.4199 4.59999C12.5119 4.59999 12.8799 5.15199 12.8799 6.89999C12.8799 7.58999 12.7419 8.32599 12.5119 9.19999H12.4199C12.1439 9.19999 11.9599 9.38399 11.9599 9.65999C11.9599 9.93599 12.1439 10.12 12.4199 10.12H16.5599C17.0199 10.12 17.4339 10.35 17.4339 10.672Z" fill="#6B6363"/>
<path d="M7.36005 17.48H4.60005C4.09405 17.48 3.68005 17.066 3.68005 16.56V10.12C3.68005 9.61401 4.09405 9.20001 4.60005 9.20001H7.36005C7.86605 9.20001 8.28005 9.61401 8.28005 10.12V16.56C8.28005 17.066 7.86605 17.48 7.36005 17.48ZM4.60005 10.12V16.56H7.36005V10.12H4.60005Z" fill="#6B6363"/>
</svg>
