<svg width="29" height="29" viewBox="0 0 29 29" fill="none" xmlns="http://www.w3.org/2000/svg">
<path d="M4.83325 22.9583V6.04167C4.83325 5.40073 5.08786 4.78604 5.54108 4.33283C5.99429 3.87961 6.60898 3.625 7.24992 3.625H23.4416C23.6339 3.625 23.8183 3.70138 23.9542 3.83735C24.0902 3.97331 24.1666 4.15772 24.1666 4.35V20.1961" stroke="#222222" stroke-width="1.5" stroke-linecap="round"/>
<path d="M19.3334 10.6091C19.3333 11.3362 19.0458 12.0337 18.5335 12.5497C17.3542 13.7387 16.2099 14.9784 14.9858 16.1239C14.8492 16.2484 14.6699 16.3157 14.4851 16.3119C14.3003 16.3081 14.124 16.2334 13.9926 16.1034L10.4667 12.5509C9.95384 12.0348 9.66602 11.3367 9.66602 10.6091C9.66602 9.88151 9.95384 9.18346 10.4667 8.66731C10.7224 8.40968 11.0266 8.20519 11.3618 8.06566C11.6969 7.92612 12.0563 7.85428 12.4193 7.85428C12.7824 7.85428 13.1418 7.92612 13.4769 8.06566C13.8121 8.20519 14.1163 8.40968 14.372 8.66731L14.5001 8.79661L14.6282 8.66731C15.0121 8.27927 15.5027 8.01425 16.0377 7.90597C16.5727 7.79769 17.1278 7.85107 17.6324 8.05929C18.137 8.26752 18.5681 8.62118 18.8711 9.07525C19.174 9.52932 19.3349 10.0633 19.3334 10.6091Z" stroke="#222222" stroke-width="1.5" stroke-linejoin="round"/>
<path d="M7.25 20.5417H24.1667M7.25 25.3751H24.1667" stroke="#222222" stroke-width="1.5" stroke-linecap="round"/>
<path d="M7.24992 25.3751C6.60898 25.3751 5.99429 25.1205 5.54108 24.6673C5.08786 24.214 4.83325 23.5994 4.83325 22.9584C4.83325 22.3175 5.08786 21.7028 5.54108 21.2496C5.99429 20.7964 6.60898 20.5417 7.24992 20.5417" stroke="#222222" stroke-width="1.5" stroke-linecap="round" stroke-linejoin="round"/>
</svg>
