<svg width="44" height="44" viewBox="0 0 44 44" fill="none" xmlns="http://www.w3.org/2000/svg">
<path d="M1.83333 39H31.1667C32.175 39 33 38.175 33 37.1667C33 36.1583 32.175 35.3333 31.1667 35.3333H1.83333C0.825 35.3333 0 36.1583 0 37.1667C0 38.175 0.825 39 1.83333 39ZM1.83333 29.8333H31.1667C32.175 29.8333 33 29.0083 33 28C33 26.9917 32.175 26.1667 31.1667 26.1667H1.83333C0.825 26.1667 0 26.9917 0 28C0 29.0083 0.825 29.8333 1.83333 29.8333ZM0 18.8333C0 19.8417 0.825 20.6667 1.83333 20.6667H31.1667C32.175 20.6667 33 19.8417 33 18.8333C33 17.825 32.175 17 31.1667 17H1.83333C0.825 17 0 17.825 0 18.8333Z" fill="black"/>
</svg>
