<svg width="29" height="29" viewBox="0 0 29 29" fill="none" xmlns="http://www.w3.org/2000/svg">
<path d="M12.0833 4.83341H8.69992C7.34659 4.83341 6.66992 4.83341 6.15275 5.09683C5.69805 5.32852 5.32836 5.69821 5.09667 6.15291C4.83325 6.67008 4.83325 7.34675 4.83325 8.70008V20.3001C4.83325 21.6534 4.83325 22.3301 5.09667 22.8472C5.32836 23.302 5.69805 23.6716 6.15275 23.9033C6.66871 24.1667 7.34538 24.1667 8.69629 24.1667H20.3035C21.6545 24.1667 22.3299 24.1667 22.8459 23.9033C23.3014 23.6713 23.6712 23.3016 23.9032 22.8472C24.1666 22.3301 24.1666 21.6546 24.1666 20.3037V16.9167M19.3333 6.04175L12.0833 13.2917V16.9167H15.7083L22.9583 9.66675M19.3333 6.04175L22.9583 2.41675L26.5833 6.04175L22.9583 9.66675M19.3333 6.04175L22.9583 9.66675" stroke="#6B6363" stroke-width="2" stroke-linecap="round" stroke-linejoin="round"/>
</svg>
