<svg width="22" height="24" viewBox="0 0 22 24" fill="none" xmlns="http://www.w3.org/2000/svg">
<path d="M22 21.6802L21.749 21.4334C21.0369 20.7265 20.4136 19.9157 19.896 19.0231C19.3306 17.7913 18.9918 16.446 18.8993 15.0663V11.0026C18.9042 8.83546 18.1987 6.74096 16.9154 5.11257C15.6322 3.48419 13.8594 2.43402 11.9302 2.15938V1.0982C11.9302 0.80694 11.8264 0.527608 11.6415 0.321656C11.4567 0.115703 11.206 0 10.9446 0C10.6832 0 10.4326 0.115703 10.2477 0.321656C10.0629 0.527608 9.95906 0.80694 9.95906 1.0982V2.17584C8.04717 2.47027 6.29582 3.52679 5.02938 5.1497C3.76295 6.77261 3.06725 8.85194 3.07114 11.0026V15.0663C2.97868 16.446 2.63984 17.7913 2.0745 19.0231C1.56575 19.9135 0.952493 20.7241 0.251007 21.4334L0 21.6802V24H22V21.6802Z" fill="white"/>
</svg>
